# xmcd CD database file
#
# Track frame offsets:
#	150
#	17215
#	33046
#	50110
#
# Disc length: 876 seconds
#
# Revision: 1
# Processed by: cddbd v1.5.1PL2 Copyright (c) Steve Scherf et al.
# Submitted via: CDex 1.60beta1
#
DISCID=2b036a04
DTITLE=UYAMUYA - 日常☆CRASHER
DYEAR=2006
DGENRE=Anime
TTITLE0=日常☆CRASHER
TTITLE1=パノラマミライ
TTITLE2=日常☆CRASHER (OFF VOCAL)
TTITLE3=パノラマミライ (OFF VOCAL)
EXTD=YEAR: 2006
EXTT0=
EXTT1=
EXTT2=
EXTT3=
PLAYORDER=
